<svg xmlns="http://www.w3.org/2000/svg" width="800" height="600" viewBox="0 0 800 600">
  <rect width="800" height="600" fill="#ffffff"/>
  <text x="400" y="50" font-family="Helvetica, Arial" font-size="26" font-weight="bold" text-anchor="middle" fill="#1e1e2e">Average Daily Library Visits by Faculty (2026)</text>
  <line x1="90" y1="500" x2="740" y2="500" stroke="#333" stroke-width="2"/>
  <line x1="90" y1="500" x2="90" y2="100" stroke="#333" stroke-width="2"/>
  <text x="40" y="300" font-family="Helvetica, Arial" font-size="16" fill="#333" transform="rotate(-90 40 300)" text-anchor="middle">Visits per day</text>
  <g font-family="Helvetica, Arial" font-size="14" fill="#666" text-anchor="end">
    <text x="82" y="505">0</text><text x="82" y="405">500</text><text x="82" y="305">1000</text><text x="82" y="205">1500</text><text x="82" y="105">2000</text>
  </g>
  <g stroke="#eee" stroke-width="1">
    <line x1="90" y1="400" x2="740" y2="400"/><line x1="90" y1="300" x2="740" y2="300"/><line x1="90" y1="200" x2="740" y2="200"/><line x1="90" y1="100" x2="740" y2="100"/>
  </g>
  <rect x="130" y="180" width="80" height="320" fill="#4f46e5"/>
  <rect x="250" y="260" width="80" height="240" fill="#4f46e5"/>
  <rect x="370" y="330" width="80" height="170" fill="#4f46e5"/>
  <rect x="490" y="230" width="80" height="270" fill="#4f46e5"/>
  <rect x="610" y="420" width="80" height="80" fill="#4f46e5"/>
  <g font-family="Helvetica, Arial" font-size="15" fill="#1e1e2e" text-anchor="middle">
    <text x="170" y="170">1600</text><text x="290" y="250">1200</text><text x="410" y="320">850</text><text x="530" y="220">1350</text><text x="650" y="410">400</text>
  </g>
  <g font-family="Helvetica, Arial" font-size="15" fill="#333" text-anchor="middle">
    <text x="170" y="530">Arts</text><text x="290" y="530">Science</text><text x="410" y="530">Engineering</text><text x="530" y="530">Commerce</text><text x="650" y="530">Music</text>
  </g>
</svg>
